<svg xmlns="http://www.w3.org/2000/svg" xmlns:xlink="http://www.w3.org/1999/xlink" width="2000" zoomAndPan="magnify" viewBox="0 0 1500 1499.999933" height="2000" preserveAspectRatio="xMidYMid meet" version="1.0"><defs><g/><clipPath id="3ade59222a"><path d="M 750 0 C 335.785156 0 0 335.785156 0 750 C 0 1164.214844 335.785156 1500 750 1500 C 1164.214844 1500 1500 1164.214844 1500 750 C 1500 335.785156 1164.214844 0 750 0 Z M 750 0 " clip-rule="nonzero"/></clipPath><clipPath id="ee1a34fd56"><path d="M 0 0 L 1500 0 L 1500 1500 L 0 1500 Z M 0 0 " clip-rule="nonzero"/></clipPath><clipPath id="ae4d60492f"><path d="M 750 0 C 335.785156 0 0 335.785156 0 750 C 0 1164.214844 335.785156 1500 750 1500 C 1164.214844 1500 1500 1164.214844 1500 750 C 1500 335.785156 1164.214844 0 750 0 Z M 750 0 " clip-rule="nonzero"/></clipPath><linearGradient x1="0.000000000000014552" gradientTransform="matrix(5.859375, 0, 0, 5.859375, 0.00003335, -0.00002)" y1="128" x2="255.999995" gradientUnits="userSpaceOnUse" y2="128" id="5d98d43371"><stop stop-opacity="1" stop-color="rgb(6.269836%, 72.549438%, 50.588989%)" offset="0"/><stop stop-opacity="1" stop-color="rgb(6.428528%, 72.622681%, 50.769043%)" offset="0.015625"/><stop stop-opacity="1" stop-color="rgb(6.747437%, 72.769165%, 51.130676%)" offset="0.03125"/><stop stop-opacity="1" stop-color="rgb(7.064819%, 72.917175%, 51.49231%)" offset="0.046875"/><stop stop-opacity="1" stop-color="rgb(7.383728%, 73.06366%, 51.853943%)" offset="0.0625"/><stop stop-opacity="1" stop-color="rgb(7.702637%, 73.210144%, 52.215576%)" offset="0.078125"/><stop stop-opacity="1" stop-color="rgb(8.021545%, 73.358154%, 52.577209%)" offset="0.09375"/><stop stop-opacity="1" stop-color="rgb(8.340454%, 73.504639%, 52.938843%)" offset="0.109375"/><stop stop-opacity="1" stop-color="rgb(8.659363%, 73.651123%, 53.300476%)" offset="0.125"/><stop stop-opacity="1" stop-color="rgb(8.978271%, 73.799133%, 53.662109%)" offset="0.140625"/><stop stop-opacity="1" stop-color="rgb(9.29718%, 73.945618%, 54.023743%)" offset="0.15625"/><stop stop-opacity="1" stop-color="rgb(9.616089%, 74.092102%, 54.385376%)" offset="0.171875"/><stop stop-opacity="1" stop-color="rgb(9.933472%, 74.240112%, 54.747009%)" offset="0.1875"/><stop stop-opacity="1" stop-color="rgb(10.25238%, 74.386597%, 55.108643%)" offset="0.203125"/><stop stop-opacity="1" stop-color="rgb(10.571289%, 74.534607%, 55.470276%)" offset="0.21875"/><stop stop-opacity="1" stop-color="rgb(10.890198%, 74.681091%, 55.831909%)" offset="0.234375"/><stop stop-opacity="1" stop-color="rgb(11.209106%, 74.827576%, 56.192017%)" offset="0.25"/><stop stop-opacity="1" stop-color="rgb(11.528015%, 74.975586%, 56.55365%)" offset="0.265625"/><stop stop-opacity="1" stop-color="rgb(11.846924%, 75.12207%, 56.915283%)" offset="0.28125"/><stop stop-opacity="1" stop-color="rgb(12.165833%, 75.268555%, 57.276917%)" offset="0.296875"/><stop stop-opacity="1" stop-color="rgb(12.484741%, 75.416565%, 57.63855%)" offset="0.3125"/><stop stop-opacity="1" stop-color="rgb(12.80365%, 75.563049%, 58.000183%)" offset="0.328125"/><stop stop-opacity="1" stop-color="rgb(13.121033%, 75.709534%, 58.361816%)" offset="0.34375"/><stop stop-opacity="1" stop-color="rgb(13.439941%, 75.857544%, 58.72345%)" offset="0.359375"/><stop stop-opacity="1" stop-color="rgb(13.75885%, 76.004028%, 59.085083%)" offset="0.375"/><stop stop-opacity="1" stop-color="rgb(14.077759%, 76.150513%, 59.446716%)" offset="0.390625"/><stop stop-opacity="1" stop-color="rgb(14.396667%, 76.298523%, 59.80835%)" offset="0.40625"/><stop stop-opacity="1" stop-color="rgb(14.715576%, 76.445007%, 60.169983%)" offset="0.421875"/><stop stop-opacity="1" stop-color="rgb(15.034485%, 76.593018%, 60.531616%)" offset="0.4375"/><stop stop-opacity="1" stop-color="rgb(15.353394%, 76.739502%, 60.89325%)" offset="0.453125"/><stop stop-opacity="1" stop-color="rgb(15.672302%, 76.885986%, 61.254883%)" offset="0.46875"/><stop stop-opacity="1" stop-color="rgb(15.989685%, 77.033997%, 61.616516%)" offset="0.484375"/><stop stop-opacity="1" stop-color="rgb(16.308594%, 77.180481%, 61.978149%)" offset="0.5"/><stop stop-opacity="1" stop-color="rgb(16.627502%, 77.326965%, 62.339783%)" offset="0.515625"/><stop stop-opacity="1" stop-color="rgb(16.946411%, 77.474976%, 62.701416%)" offset="0.53125"/><stop stop-opacity="1" stop-color="rgb(17.26532%, 77.62146%, 63.063049%)" offset="0.546875"/><stop stop-opacity="1" stop-color="rgb(17.584229%, 77.767944%, 63.424683%)" offset="0.5625"/><stop stop-opacity="1" stop-color="rgb(17.903137%, 77.915955%, 63.78479%)" offset="0.578125"/><stop stop-opacity="1" stop-color="rgb(18.222046%, 78.062439%, 64.146423%)" offset="0.59375"/><stop stop-opacity="1" stop-color="rgb(18.540955%, 78.208923%, 64.508057%)" offset="0.609375"/><stop stop-opacity="1" stop-color="rgb(18.859863%, 78.356934%, 64.86969%)" offset="0.625"/><stop stop-opacity="1" stop-color="rgb(19.177246%, 78.503418%, 65.231323%)" offset="0.640625"/><stop stop-opacity="1" stop-color="rgb(19.496155%, 78.651428%, 65.592957%)" offset="0.65625"/><stop stop-opacity="1" stop-color="rgb(19.815063%, 78.797913%, 65.95459%)" offset="0.671875"/><stop stop-opacity="1" stop-color="rgb(20.133972%, 78.944397%, 66.316223%)" offset="0.6875"/><stop stop-opacity="1" stop-color="rgb(20.452881%, 79.092407%, 66.677856%)" offset="0.703125"/><stop stop-opacity="1" stop-color="rgb(20.77179%, 79.238892%, 67.03949%)" offset="0.71875"/><stop stop-opacity="1" stop-color="rgb(21.090698%, 79.385376%, 67.401123%)" offset="0.734375"/><stop stop-opacity="1" stop-color="rgb(21.409607%, 79.533386%, 67.762756%)" offset="0.75"/><stop stop-opacity="1" stop-color="rgb(21.728516%, 79.679871%, 68.12439%)" offset="0.765625"/><stop stop-opacity="1" stop-color="rgb(22.047424%, 79.826355%, 68.486023%)" offset="0.78125"/><stop stop-opacity="1" stop-color="rgb(22.364807%, 79.974365%, 68.847656%)" offset="0.796875"/><stop stop-opacity="1" stop-color="rgb(22.683716%, 80.12085%, 69.20929%)" offset="0.8125"/><stop stop-opacity="1" stop-color="rgb(23.002625%, 80.26886%, 69.570923%)" offset="0.828125"/><stop stop-opacity="1" stop-color="rgb(23.321533%, 80.415344%, 69.932556%)" offset="0.84375"/><stop stop-opacity="1" stop-color="rgb(23.640442%, 80.561829%, 70.294189%)" offset="0.859375"/><stop stop-opacity="1" stop-color="rgb(23.959351%, 80.709839%, 70.655823%)" offset="0.875"/><stop stop-opacity="1" stop-color="rgb(24.278259%, 80.856323%, 71.017456%)" offset="0.890625"/><stop stop-opacity="1" stop-color="rgb(24.597168%, 81.002808%, 71.379089%)" offset="0.90625"/><stop stop-opacity="1" stop-color="rgb(24.916077%, 81.150818%, 71.739197%)" offset="0.921875"/><stop stop-opacity="1" stop-color="rgb(25.233459%, 81.297302%, 72.10083%)" offset="0.9375"/><stop stop-opacity="1" stop-color="rgb(25.552368%, 81.443787%, 72.462463%)" offset="0.953125"/><stop stop-opacity="1" stop-color="rgb(25.871277%, 81.591797%, 72.824097%)" offset="0.96875"/><stop stop-opacity="1" stop-color="rgb(26.190186%, 81.738281%, 73.18573%)" offset="0.984375"/><stop stop-opacity="1" stop-color="rgb(26.509094%, 81.884766%, 73.547363%)" offset="1"/></linearGradient><clipPath id="bc6aa374d2"><rect x="0" width="1500" y="0" height="1500"/></clipPath><clipPath id="6917ec3189"><rect x="0" width="607" y="0" height="1378"/></clipPath></defs><g clip-path="url(#3ade59222a)"><g transform="matrix(1, 0, 0, 1, 0, 0.000000000000112861)"><g clip-path="url(#bc6aa374d2)"><g clip-path="url(#ee1a34fd56)"><g clip-path="url(#ae4d60492f)"><rect x="-330" fill="url(#5d98d43371)" width="2160" height="2159.999904" y="-329.999985"/></g></g></g></g></g><g transform="matrix(1, 0, 0, 1, 447, 33)"><g clip-path="url(#6917ec3189)"><g fill="#ffffff" fill-opacity="1"><g transform="translate(0.149145, 1163.271711)"><g><path d="M 468.40625 0 L 305.984375 0 C 294.617188 0 288.335938 5.382812 287.140625 16.15625 L 277.28125 113.0625 C 276.082031 122.03125 270.992188 126.515625 262.015625 126.515625 C 253.046875 126.515625 249.160156 122.03125 250.359375 113.0625 L 260.21875 13.453125 C 261.414062 4.484375 257.53125 0 248.5625 0 C 239.582031 0 234.5 4.484375 233.3125 13.453125 L 223.4375 113.0625 C 222.238281 122.03125 217.15625 126.515625 208.1875 126.515625 C 199.207031 126.515625 195.316406 122.03125 196.515625 113.0625 L 206.390625 16.15625 C 207.585938 5.382812 202.5 0 191.125 0 L 60.125 0 C 46.957031 0 35.882812 -4.484375 26.90625 -13.453125 C 17.9375 -22.429688 13.453125 -33.5 13.453125 -46.65625 L 13.453125 -351.75 C 13.453125 -365.507812 17.9375 -376.722656 26.90625 -385.390625 C 35.882812 -394.066406 46.957031 -398.40625 60.125 -398.40625 L 208.1875 -398.40625 C 220.75 -398.40625 231.960938 -393.769531 241.828125 -384.5 C 251.703125 -375.226562 256.039062 -364.3125 254.84375 -351.75 L 220.75 -40.375 C 219.550781 -31.40625 223.738281 -26.921875 233.3125 -26.921875 C 242.28125 -26.921875 247.363281 -31.40625 248.5625 -40.375 L 288.046875 -408.28125 C 289.242188 -419.644531 284.15625 -425.328125 272.78125 -425.328125 L 60.125 -425.328125 C 46.957031 -425.328125 35.882812 -429.8125 26.90625 -438.78125 C 17.9375 -447.757812 13.453125 -458.832031 13.453125 -472 L 13.453125 -716.046875 C 13.453125 -753.140625 24.816406 -783.050781 47.546875 -805.78125 C 70.285156 -828.519531 100.203125 -839.890625 137.296875 -839.890625 L 289.84375 -839.890625 C 301.207031 -839.890625 307.488281 -845.269531 308.6875 -856.03125 L 318.546875 -954.734375 C 319.742188 -963.710938 324.832031 -968.203125 333.8125 -968.203125 C 342.78125 -968.203125 346.664062 -963.710938 345.46875 -954.734375 L 335.59375 -853.34375 C 334.40625 -844.375 338.296875 -839.890625 347.265625 -839.890625 C 356.234375 -839.890625 361.316406 -844.375 362.515625 -853.34375 L 372.390625 -954.734375 C 373.585938 -963.710938 378.671875 -968.203125 387.640625 -968.203125 C 396.617188 -968.203125 400.507812 -963.710938 399.3125 -954.734375 L 389.4375 -856.03125 C 388.238281 -845.269531 393.320312 -839.890625 404.6875 -839.890625 L 545.5625 -839.890625 C 559.320312 -839.890625 570.535156 -835.550781 579.203125 -826.875 C 587.878906 -818.195312 592.21875 -806.976562 592.21875 -793.21875 L 592.21875 -472 C 592.21875 -458.832031 587.878906 -447.757812 579.203125 -438.78125 C 570.535156 -429.8125 559.320312 -425.328125 545.5625 -425.328125 L 394.828125 -425.328125 C 382.265625 -425.328125 371.046875 -429.960938 361.171875 -439.234375 C 351.304688 -448.515625 346.96875 -459.4375 348.15625 -472 L 384.0625 -799.5 C 385.25 -808.476562 381.359375 -812.96875 372.390625 -812.96875 C 363.421875 -812.96875 358.335938 -808.476562 357.140625 -799.5 L 315.859375 -415.46875 C 314.660156 -404.09375 319.742188 -398.40625 331.109375 -398.40625 L 545.5625 -398.40625 C 559.320312 -398.40625 570.535156 -394.066406 579.203125 -385.390625 C 587.878906 -376.722656 592.21875 -365.507812 592.21875 -351.75 L 592.21875 -123.828125 C 592.21875 -86.742188 580.851562 -56.832031 558.125 -34.09375 C 535.394531 -11.363281 505.488281 0 468.40625 0 Z M 468.40625 0 "/></g></g></g></g></g></svg>